<?xml version="1.0" encoding="UTF-8" standalone="no"?>
<!DOCTYPE svg PUBLIC "-//W3C//DTD SVG 20010904//EN"
              "http://www.w3.org/TR/2001/REC-SVG-20010904/DTD/svg10.dtd">

<svg xmlns="http://www.w3.org/2000/svg"
     width="9.72222in" height="6.80556in"
     viewBox="0 0 700 490">
  <path id="Sélection"
        fill="none" stroke="black" stroke-width="1"
        d="M 362.00,0.21
           C 377.70,0.02 402.74,4.91 418.00,9.29
             517.07,37.74 586.07,125.85 593.09,228.00
             593.09,228.00 594.00,238.00 594.00,238.00
             594.74,301.94 574.03,362.17 530.83,410.00
             511.65,431.24 488.95,448.30 464.00,462.14
             437.54,476.82 393.35,489.95 363.00,490.00
             363.00,490.00 336.00,490.00 336.00,490.00
             319.70,489.81 296.78,484.92 281.00,480.42
             260.92,474.69 241.79,466.09 224.00,455.19
             127.83,396.27 83.58,279.60 117.02,172.00
             138.62,102.53 190.43,44.95 258.00,17.45
             283.56,7.05 302.24,4.24 329.00,0.21
             329.00,0.21 362.00,0.21 362.00,0.21 Z
           M 425.00,466.00
           C 457.60,455.13 487.74,436.26 512.00,412.00
             533.77,390.23 548.86,369.02 561.69,341.00
             576.90,307.79 582.17,273.21 582.00,237.00
             581.95,226.44 579.50,209.51 577.40,199.00
             567.20,148.01 543.02,106.50 505.00,71.09
             484.12,51.64 458.42,36.93 432.00,26.45
             416.06,20.12 398.95,16.22 382.00,13.87
             366.64,11.74 361.15,11.98 346.00,12.00
             313.17,12.05 278.75,31.20 259.13,57.00
             250.65,68.16 246.33,76.95 241.59,90.00
             236.96,102.74 234.85,118.47 235.00,132.00
             235.61,183.81 273.00,230.12 323.00,242.63
             336.37,245.97 343.54,245.98 357.00,246.00
             374.24,246.03 395.24,252.67 410.00,261.45
             470.35,297.36 487.69,376.25 445.84,433.00
             437.38,444.48 426.08,455.15 414.00,462.77
             414.00,462.77 404.00,468.63 404.00,468.63
             404.00,468.63 393.00,474.00 393.00,474.00
             402.43,473.23 415.88,469.04 425.00,466.00 Z
           M 351.00,77.00
           C 358.90,76.97 363.64,77.66 371.00,80.87
             376.86,83.43 382.26,87.12 386.38,92.01
             412.79,123.40 391.74,170.93 350.00,169.99
             316.54,169.23 295.91,134.02 309.52,104.00
             316.06,89.56 329.17,81.28 344.00,77.51
             347.07,77.03 347.92,77.01 351.00,77.00 Z
           M 310.49,343.00
           C 297.35,371.14 314.95,408.61 348.00,409.00
             360.24,409.14 367.50,408.58 378.00,401.23
             408.77,379.69 401.39,329.98 365.00,319.21
             360.57,317.90 353.59,316.96 349.00,317.29
             332.05,319.75 318.13,326.64 310.49,343.00 Z
           M 391.00,474.00
           C 391.00,474.00 392.00,475.00 392.00,475.00
             392.00,475.00 392.00,474.00 392.00,474.00
             392.00,474.00 391.00,474.00 391.00,474.00 Z" />
</svg>
